<svg id="visual" viewBox="0 0 960 540" width="960" height="540" xmlns="http://www.w3.org/2000/svg" xmlns:xlink="http://www.w3.org/1999/xlink" version="1.1"><g stroke-width="1" stroke-linejoin="bevel"><path d="M455 353L469 182L256 344Z" fill="#649bf3" stroke="#649bf3"></path><path d="M469 182L256 156L256 344Z" fill="#649bf3" stroke="#649bf3"></path><path d="M491 0L244 0L256 156Z" fill="#6b91e2" stroke="#6b91e2"></path><path d="M0 336L219 540L256 344Z" fill="#635c7f" stroke="#635c7f"></path><path d="M709 195L491 0L469 182Z" fill="#554e62" stroke="#554e62"></path><path d="M469 182L491 0L256 156Z" fill="#554e62" stroke="#554e62"></path><path d="M0 210L256 344L256 156Z" fill="#68648e" stroke="#68648e"></path><path d="M256 344L219 540L455 353Z" fill="#6e87d0" stroke="#6e87d0"></path><path d="M219 540L511 540L455 353Z" fill="#6f75ae" stroke="#6f75ae"></path><path d="M455 353L709 195L469 182Z" fill="#68648e" stroke="#68648e"></path><path d="M727 379L709 195L455 353Z" fill="#6b91e2" stroke="#6b91e2"></path><path d="M0 0L0 210L256 156Z" fill="#6c6c9e" stroke="#6c6c9e"></path><path d="M0 210L0 336L256 344Z" fill="#6b91e2" stroke="#6b91e2"></path><path d="M511 540L727 379L455 353Z" fill="#649bf3" stroke="#649bf3"></path><path d="M511 540L700 540L727 379Z" fill="#635c7f" stroke="#635c7f"></path><path d="M244 0L0 0L256 156Z" fill="#6e87d0" stroke="#6e87d0"></path><path d="M0 336L0 540L219 540Z" fill="#649bf3" stroke="#649bf3"></path><path d="M709 195L745 0L491 0Z" fill="#649bf3" stroke="#649bf3"></path><path d="M960 185L745 0L709 195Z" fill="#6b91e2" stroke="#6b91e2"></path><path d="M960 391L960 185L727 379Z" fill="#635c7f" stroke="#635c7f"></path><path d="M727 379L960 185L709 195Z" fill="#4d4754" stroke="#4d4754"></path><path d="M960 540L960 391L727 379Z" fill="#635c7f" stroke="#635c7f"></path><path d="M960 185L960 0L745 0Z" fill="#635c7f" stroke="#635c7f"></path><path d="M700 540L960 540L727 379Z" fill="#649bf3" stroke="#649bf3"></path></g></svg>