<svg id="visual" viewBox="0 0 200 100" width="200" height="100" xmlns="http://www.w3.org/2000/svg" xmlns:xlink="http://www.w3.org/1999/xlink" version="1.1"><g stroke-width="1" stroke-linejoin="bevel"><path d="M70 23L122 0L79 0Z" fill="#6b91e2" stroke="#6b91e2"></path><path d="M0 29L56 49L70 23Z" fill="#635c7f" stroke="#635c7f"></path><path d="M70 23L154 65L122 0Z" fill="#68648e" stroke="#68648e"></path><path d="M56 49L154 65L70 23Z" fill="#4d4754" stroke="#4d4754"></path><path d="M56 49L70 100L154 65Z" fill="#6f75ae" stroke="#6f75ae"></path><path d="M56 49L49 100L70 100Z" fill="#68648e" stroke="#68648e"></path><path d="M0 0L0 29L70 23Z" fill="#6f7ebf" stroke="#6f7ebf"></path><path d="M56 49L0 100L49 100Z" fill="#635c7f" stroke="#635c7f"></path><path d="M154 65L200 0L122 0Z" fill="#6f75ae" stroke="#6f75ae"></path><path d="M79 0L0 0L70 23Z" fill="#68648e" stroke="#68648e"></path><path d="M171 100L200 54L154 65Z" fill="#6b91e2" stroke="#6b91e2"></path><path d="M154 65L200 54L200 0Z" fill="#649bf3" stroke="#649bf3"></path><path d="M70 100L171 100L154 65Z" fill="#6f7ebf" stroke="#6f7ebf"></path><path d="M171 100L200 100L200 54Z" fill="#4d4754" stroke="#4d4754"></path><path d="M0 29L0 100L56 49Z" fill="#68648e" stroke="#68648e"></path></g></svg>